<svg xmlns="http://www.w3.org/2000/svg" version="1.1" xmlns:xlink="http://www.w3.org/1999/xlink" xmlns:svgjs="http://svgjs.com/svgjs" width="1440" height="560" preserveAspectRatio="none" viewBox="0 0 1440 560"><g mask="url(&quot;#SvgjsMask1010&quot;)" fill="none"><path d="M-102.05 355.44L-102.05 355.44" stroke="#132e65" stroke-width="1.5"></path><path d="M-102.05 355.44L-107.09 501.63" stroke="#132e65" stroke-width="1.5"></path><path d="M-102.05 355.44L51.57 412.07" stroke="#132e65" stroke-width="1.5"></path><path d="M-102.05 355.44L58.99 512.86" stroke="#132e65" stroke-width="1.5"></path><path d="M-102.05 355.44L232.26 360.5" stroke="#132e65" stroke-width="1.5"></path><path d="M-102.05 355.44L208.29 561.45" stroke="#132e65" stroke-width="1.5"></path><path d="M-107.09 501.63L-107.09 501.63" stroke="#132e65" stroke-width="1.5"></path><path d="M-107.09 501.63L58.99 512.86" stroke="#132e65" stroke-width="1.5"></path><path d="M-107.09 501.63L51.57 412.07" stroke="#132e65" stroke-width="1.5"></path><path d="M-107.09 501.63L208.29 561.45" stroke="#132e65" stroke-width="1.5"></path><path d="M-107.09 501.63L190.13 668.4" stroke="#132e65" stroke-width="1.5"></path><path d="M51.57 412.07L51.57 412.07" stroke="#132e65" stroke-width="1.5"></path><path d="M51.57 412.07L58.99 512.86" stroke="#132e65" stroke-width="1.5"></path><path d="M51.57 412.07L232.26 360.5" stroke="#132e65" stroke-width="1.5"></path><path d="M51.57 412.07L208.29 561.45" stroke="#132e65" stroke-width="1.5"></path><path d="M51.57 412.07L190.13 668.4" stroke="#132e65" stroke-width="1.5"></path><path d="M58.99 512.86L58.99 512.86" stroke="#132e65" stroke-width="1.5"></path><path d="M58.99 512.86L208.29 561.45" stroke="#132e65" stroke-width="1.5"></path><path d="M232.26 360.5L232.26 360.5" stroke="#132e65" stroke-width="1.5"></path><path d="M232.26 360.5L347.21 377.65" stroke="#132e65" stroke-width="1.5"></path><path d="M232.26 360.5L208.29 561.45" stroke="#132e65" stroke-width="1.5"></path><path d="M232.26 360.5L58.99 512.86" stroke="#132e65" stroke-width="1.5"></path><path d="M232.26 360.5L383.99 535.02" stroke="#132e65" stroke-width="1.5"></path><path d="M232.26 360.5L494.14 382.87" stroke="#132e65" stroke-width="1.5"></path><path d="M208.29 561.45L208.29 561.45" stroke="#132e65" stroke-width="1.5"></path><path d="M208.29 561.45L190.13 668.4" stroke="#132e65" stroke-width="1.5"></path><path d="M190.13 668.4L190.13 668.4" stroke="#132e65" stroke-width="1.5"></path><path d="M347.21 377.65L347.21 377.65" stroke="#132e65" stroke-width="1.5"></path><path d="M347.21 377.65L494.14 382.87" stroke="#132e65" stroke-width="1.5"></path><path d="M347.21 377.65L383.99 535.02" stroke="#132e65" stroke-width="1.5"></path><path d="M347.21 377.65L208.29 561.45" stroke="#132e65" stroke-width="1.5"></path><path d="M347.21 377.65L545.41 527.36" stroke="#132e65" stroke-width="1.5"></path><path d="M347.21 377.65L403.7 666.71" stroke="#132e65" stroke-width="1.5"></path><path d="M383.99 535.02L383.99 535.02" stroke="#132e65" stroke-width="1.5"></path><path d="M383.99 535.02L403.7 666.71" stroke="#132e65" stroke-width="1.5"></path><path d="M383.99 535.02L545.41 527.36" stroke="#132e65" stroke-width="1.5"></path><path d="M403.7 666.71L403.7 666.71" stroke="#132e65" stroke-width="1.5"></path><path d="M403.7 666.71L490.72 678.48" stroke="#132e65" stroke-width="1.5"></path><path d="M403.7 666.71L545.41 527.36" stroke="#132e65" stroke-width="1.5"></path><path d="M403.7 666.71L190.13 668.4" stroke="#132e65" stroke-width="1.5"></path><path d="M494.14 382.87L494.14 382.87" stroke="#132e65" stroke-width="1.5"></path><path d="M494.14 382.87L545.41 527.36" stroke="#132e65" stroke-width="1.5"></path><path d="M494.14 382.87L664.75 343.21" stroke="#132e65" stroke-width="1.5"></path><path d="M494.14 382.87L383.99 535.02" stroke="#132e65" stroke-width="1.5"></path><path d="M494.14 382.87L665.15 516.6" stroke="#132e65" stroke-width="1.5"></path><path d="M545.41 527.36L545.41 527.36" stroke="#132e65" stroke-width="1.5"></path><path d="M545.41 527.36L665.15 516.6" stroke="#132e65" stroke-width="1.5"></path><path d="M545.41 527.36L490.72 678.48" stroke="#132e65" stroke-width="1.5"></path><path d="M490.72 678.48L490.72 678.48" stroke="#132e65" stroke-width="1.5"></path><path d="M712.01 223.41L712.01 223.41" stroke="#132e65" stroke-width="1.5"></path><path d="M712.01 223.41L798.78 232.88" stroke="#132e65" stroke-width="1.5"></path><path d="M712.01 223.41L664.75 343.21" stroke="#132e65" stroke-width="1.5"></path><path d="M712.01 223.41L830.68 365.73" stroke="#132e65" stroke-width="1.5"></path><path d="M712.01 223.41L965.83 192.33" stroke="#132e65" stroke-width="1.5"></path><path d="M712.01 223.41L494.14 382.87" stroke="#132e65" stroke-width="1.5"></path><path d="M664.75 343.21L664.75 343.21" stroke="#132e65" stroke-width="1.5"></path><path d="M664.75 343.21L830.68 365.73" stroke="#132e65" stroke-width="1.5"></path><path d="M665.15 516.6L665.15 516.6" stroke="#132e65" stroke-width="1.5"></path><path d="M665.15 516.6L670.75 668.62" stroke="#132e65" stroke-width="1.5"></path><path d="M665.15 516.6L664.75 343.21" stroke="#132e65" stroke-width="1.5"></path><path d="M665.15 516.6L843.22 541.38" stroke="#132e65" stroke-width="1.5"></path><path d="M670.75 668.62L670.75 668.62" stroke="#132e65" stroke-width="1.5"></path><path d="M670.75 668.62L819.32 683.32" stroke="#132e65" stroke-width="1.5"></path><path d="M670.75 668.62L490.72 678.48" stroke="#132e65" stroke-width="1.5"></path><path d="M670.75 668.62L545.41 527.36" stroke="#132e65" stroke-width="1.5"></path><path d="M670.75 668.62L843.22 541.38" stroke="#132e65" stroke-width="1.5"></path><path d="M798.78 232.88L798.78 232.88" stroke="#132e65" stroke-width="1.5"></path><path d="M798.78 232.88L830.68 365.73" stroke="#132e65" stroke-width="1.5"></path><path d="M798.78 232.88L965.83 192.33" stroke="#132e65" stroke-width="1.5"></path><path d="M798.78 232.88L664.75 343.21" stroke="#132e65" stroke-width="1.5"></path><path d="M830.68 365.73L830.68 365.73" stroke="#132e65" stroke-width="1.5"></path><path d="M830.68 365.73L996.96 359.41" stroke="#132e65" stroke-width="1.5"></path><path d="M830.68 365.73L843.22 541.38" stroke="#132e65" stroke-width="1.5"></path><path d="M843.22 541.38L843.22 541.38" stroke="#132e65" stroke-width="1.5"></path><path d="M843.22 541.38L819.32 683.32" stroke="#132e65" stroke-width="1.5"></path><path d="M843.22 541.38L993.93 511.77" stroke="#132e65" stroke-width="1.5"></path><path d="M819.32 683.32L819.32 683.32" stroke="#132e65" stroke-width="1.5"></path><path d="M819.32 683.32L986.64 683.72" stroke="#132e65" stroke-width="1.5"></path><path d="M819.32 683.32L665.15 516.6" stroke="#132e65" stroke-width="1.5"></path><path d="M954.22 -46.37L954.22 -46.37" stroke="#132e65" stroke-width="1.5"></path><path d="M954.22 -46.37L1008.05 85.91" stroke="#132e65" stroke-width="1.5"></path><path d="M954.22 -46.37L1155.38 58.5" stroke="#132e65" stroke-width="1.5"></path><path d="M954.22 -46.37L965.83 192.33" stroke="#132e65" stroke-width="1.5"></path><path d="M954.22 -46.37L798.78 232.88" stroke="#132e65" stroke-width="1.5"></path><path d="M954.22 -46.37L1124.32 226.28" stroke="#132e65" stroke-width="1.5"></path><path d="M1008.05 85.91L1008.05 85.91" stroke="#132e65" stroke-width="1.5"></path><path d="M1008.05 85.91L965.83 192.33" stroke="#132e65" stroke-width="1.5"></path><path d="M1008.05 85.91L1155.38 58.5" stroke="#132e65" stroke-width="1.5"></path><path d="M1008.05 85.91L1124.32 226.28" stroke="#132e65" stroke-width="1.5"></path><path d="M1008.05 85.91L798.78 232.88" stroke="#132e65" stroke-width="1.5"></path><path d="M1008.05 85.91L996.96 359.41" stroke="#132e65" stroke-width="1.5"></path><path d="M965.83 192.33L965.83 192.33" stroke="#132e65" stroke-width="1.5"></path><path d="M965.83 192.33L1124.32 226.28" stroke="#132e65" stroke-width="1.5"></path><path d="M965.83 192.33L996.96 359.41" stroke="#132e65" stroke-width="1.5"></path><path d="M996.96 359.41L996.96 359.41" stroke="#132e65" stroke-width="1.5"></path><path d="M996.96 359.41L1132.8 356.42" stroke="#132e65" stroke-width="1.5"></path><path d="M996.96 359.41L993.93 511.77" stroke="#132e65" stroke-width="1.5"></path><path d="M993.93 511.77L993.93 511.77" stroke="#132e65" stroke-width="1.5"></path><path d="M993.93 511.77L1104.76 531.74" stroke="#132e65" stroke-width="1.5"></path><path d="M986.64 683.72L986.64 683.72" stroke="#132e65" stroke-width="1.5"></path><path d="M986.64 683.72L1123.43 659.42" stroke="#132e65" stroke-width="1.5"></path><path d="M986.64 683.72L993.93 511.77" stroke="#132e65" stroke-width="1.5"></path><path d="M986.64 683.72L1104.76 531.74" stroke="#132e65" stroke-width="1.5"></path><path d="M986.64 683.72L843.22 541.38" stroke="#132e65" stroke-width="1.5"></path><path d="M986.64 683.72L1294.28 682.95" stroke="#132e65" stroke-width="1.5"></path><path d="M1155.38 58.5L1155.38 58.5" stroke="#132e65" stroke-width="1.5"></path><path d="M1155.38 58.5L1302.04 48.36" stroke="#132e65" stroke-width="1.5"></path><path d="M1155.38 58.5L1124.32 226.28" stroke="#132e65" stroke-width="1.5"></path><path d="M1155.38 58.5L1276.13 199.81" stroke="#132e65" stroke-width="1.5"></path><path d="M1124.32 226.28L1124.32 226.28" stroke="#132e65" stroke-width="1.5"></path><path d="M1124.32 226.28L1132.8 356.42" stroke="#132e65" stroke-width="1.5"></path><path d="M1124.32 226.28L1276.13 199.81" stroke="#132e65" stroke-width="1.5"></path><path d="M1124.32 226.28L996.96 359.41" stroke="#132e65" stroke-width="1.5"></path><path d="M1132.8 356.42L1132.8 356.42" stroke="#132e65" stroke-width="1.5"></path><path d="M1132.8 356.42L1259.8 410.69" stroke="#132e65" stroke-width="1.5"></path><path d="M1132.8 356.42L1104.76 531.74" stroke="#132e65" stroke-width="1.5"></path><path d="M1132.8 356.42L1269.51 503.54" stroke="#132e65" stroke-width="1.5"></path><path d="M1132.8 356.42L993.93 511.77" stroke="#132e65" stroke-width="1.5"></path><path d="M1104.76 531.74L1104.76 531.74" stroke="#132e65" stroke-width="1.5"></path><path d="M1123.43 659.42L1123.43 659.42" stroke="#132e65" stroke-width="1.5"></path><path d="M1123.43 659.42L1104.76 531.74" stroke="#132e65" stroke-width="1.5"></path><path d="M1123.43 659.42L1294.28 682.95" stroke="#132e65" stroke-width="1.5"></path><path d="M1123.43 659.42L993.93 511.77" stroke="#132e65" stroke-width="1.5"></path><path d="M1302.04 48.36L1302.04 48.36" stroke="#132e65" stroke-width="1.5"></path><path d="M1302.04 48.36L1435.72 44.94" stroke="#132e65" stroke-width="1.5"></path><path d="M1302.04 48.36L1276.13 199.81" stroke="#132e65" stroke-width="1.5"></path><path d="M1302.04 48.36L1440.37 -80.46" stroke="#132e65" stroke-width="1.5"></path><path d="M1276.13 199.81L1276.13 199.81" stroke="#132e65" stroke-width="1.5"></path><path d="M1276.13 199.81L1426.63 255.06" stroke="#132e65" stroke-width="1.5"></path><path d="M1259.8 410.69L1259.8 410.69" stroke="#132e65" stroke-width="1.5"></path><path d="M1259.8 410.69L1269.51 503.54" stroke="#132e65" stroke-width="1.5"></path><path d="M1269.51 503.54L1269.51 503.54" stroke="#132e65" stroke-width="1.5"></path><path d="M1269.51 503.54L1422.43 499.81" stroke="#132e65" stroke-width="1.5"></path><path d="M1269.51 503.54L1104.76 531.74" stroke="#132e65" stroke-width="1.5"></path><path d="M1269.51 503.54L1294.28 682.95" stroke="#132e65" stroke-width="1.5"></path><path d="M1269.51 503.54L1410.35 363.81" stroke="#132e65" stroke-width="1.5"></path><path d="M1294.28 682.95L1294.28 682.95" stroke="#132e65" stroke-width="1.5"></path><path d="M1294.28 682.95L1395.68 673.17" stroke="#132e65" stroke-width="1.5"></path><path d="M1294.28 682.95L1422.43 499.81" stroke="#132e65" stroke-width="1.5"></path><path d="M1294.28 682.95L1104.76 531.74" stroke="#132e65" stroke-width="1.5"></path><path d="M1294.28 682.95L1259.8 410.69" stroke="#132e65" stroke-width="1.5"></path><path d="M1440.37 -80.46L1440.37 -80.46" stroke="#132e65" stroke-width="1.5"></path><path d="M1440.37 -80.46L1435.72 44.94" stroke="#132e65" stroke-width="1.5"></path><path d="M1440.37 -80.46L1576.41 -76.69" stroke="#132e65" stroke-width="1.5"></path><path d="M1440.37 -80.46L1580.38 110.54" stroke="#132e65" stroke-width="1.5"></path><path d="M1440.37 -80.46L1155.38 58.5" stroke="#132e65" stroke-width="1.5"></path><path d="M1440.37 -80.46L1276.13 199.81" stroke="#132e65" stroke-width="1.5"></path><path d="M1435.72 44.94L1435.72 44.94" stroke="#132e65" stroke-width="1.5"></path><path d="M1435.72 44.94L1580.38 110.54" stroke="#132e65" stroke-width="1.5"></path><path d="M1435.72 44.94L1576.41 -76.69" stroke="#132e65" stroke-width="1.5"></path><path d="M1435.72 44.94L1426.63 255.06" stroke="#132e65" stroke-width="1.5"></path><path d="M1426.63 255.06L1426.63 255.06" stroke="#132e65" stroke-width="1.5"></path><path d="M1426.63 255.06L1410.35 363.81" stroke="#132e65" stroke-width="1.5"></path><path d="M1410.35 363.81L1410.35 363.81" stroke="#132e65" stroke-width="1.5"></path><path d="M1410.35 363.81L1422.43 499.81" stroke="#132e65" stroke-width="1.5"></path><path d="M1410.35 363.81L1259.8 410.69" stroke="#132e65" stroke-width="1.5"></path><path d="M1410.35 363.81L1585.92 365.48" stroke="#132e65" stroke-width="1.5"></path><path d="M1422.43 499.81L1422.43 499.81" stroke="#132e65" stroke-width="1.5"></path><path d="M1422.43 499.81L1571.36 511.53" stroke="#132e65" stroke-width="1.5"></path><path d="M1395.68 673.17L1395.68 673.17" stroke="#132e65" stroke-width="1.5"></path><path d="M1395.68 673.17L1422.43 499.81" stroke="#132e65" stroke-width="1.5"></path><path d="M1395.68 673.17L1572.57 657.34" stroke="#132e65" stroke-width="1.5"></path><path d="M1395.68 673.17L1269.51 503.54" stroke="#132e65" stroke-width="1.5"></path><path d="M1395.68 673.17L1571.36 511.53" stroke="#132e65" stroke-width="1.5"></path><path d="M1395.68 673.17L1123.43 659.42" stroke="#132e65" stroke-width="1.5"></path><path d="M1576.41 -76.69L1576.41 -76.69" stroke="#132e65" stroke-width="1.5"></path><path d="M1576.41 -76.69L1580.38 110.54" stroke="#132e65" stroke-width="1.5"></path><path d="M1580.38 110.54L1580.38 110.54" stroke="#132e65" stroke-width="1.5"></path><path d="M1580.38 110.54L1572.56 229.29" stroke="#132e65" stroke-width="1.5"></path><path d="M1572.56 229.29L1572.56 229.29" stroke="#132e65" stroke-width="1.5"></path><path d="M1572.56 229.29L1585.92 365.48" stroke="#132e65" stroke-width="1.5"></path><path d="M1572.56 229.29L1426.63 255.06" stroke="#132e65" stroke-width="1.5"></path><path d="M1585.92 365.48L1585.92 365.48" stroke="#132e65" stroke-width="1.5"></path><path d="M1585.92 365.48L1571.36 511.53" stroke="#132e65" stroke-width="1.5"></path><path d="M1585.92 365.48L1426.63 255.06" stroke="#132e65" stroke-width="1.5"></path><path d="M1585.92 365.48L1422.43 499.81" stroke="#132e65" stroke-width="1.5"></path><path d="M1571.36 511.53L1571.36 511.53" stroke="#132e65" stroke-width="1.5"></path><path d="M1571.36 511.53L1572.57 657.34" stroke="#132e65" stroke-width="1.5"></path><path d="M1571.36 511.53L1410.35 363.81" stroke="#132e65" stroke-width="1.5"></path><path d="M1572.57 657.34L1572.57 657.34" stroke="#132e65" stroke-width="1.5"></path><path d="M1572.57 657.34L1422.43 499.81" stroke="#132e65" stroke-width="1.5"></path><path d="M1572.57 657.34L1294.28 682.95" stroke="#132e65" stroke-width="1.5"></path><path d="M1572.57 657.34L1585.92 365.48" stroke="#132e65" stroke-width="1.5"></path><circle r="5" cx="-102.05" cy="355.44" fill="#132e65"></circle><circle r="5" cx="-107.09" cy="501.63" fill="#132e65"></circle><circle r="5" cx="51.57" cy="412.07" fill="#132e65"></circle><circle r="5" cx="58.99" cy="512.86" fill="#132e65"></circle><circle r="5" cx="232.26" cy="360.5" fill="#132e65"></circle><circle r="5" cx="208.29" cy="561.45" fill="#132e65"></circle><circle r="5" cx="190.13" cy="668.4" fill="#132e65"></circle><circle r="5" cx="347.21" cy="377.65" fill="#132e65"></circle><circle r="5" cx="383.99" cy="535.02" fill="#132e65"></circle><circle r="5" cx="403.7" cy="666.71" fill="#132e65"></circle><circle r="5" cx="494.14" cy="382.87" fill="#132e65"></circle><circle r="5" cx="545.41" cy="527.36" fill="#132e65"></circle><circle r="5" cx="490.72" cy="678.48" fill="#132e65"></circle><circle r="5" cx="712.01" cy="223.41" fill="#132e65"></circle><circle r="5" cx="664.75" cy="343.21" fill="#132e65"></circle><circle r="5" cx="665.15" cy="516.6" fill="#132e65"></circle><circle r="5" cx="670.75" cy="668.62" fill="#132e65"></circle><circle r="5" cx="798.78" cy="232.88" fill="#132e65"></circle><circle r="5" cx="830.68" cy="365.73" fill="#132e65"></circle><circle r="5" cx="843.22" cy="541.38" fill="#132e65"></circle><circle r="5" cx="819.32" cy="683.32" fill="#132e65"></circle><circle r="5" cx="954.22" cy="-46.37" fill="#132e65"></circle><circle r="5" cx="1008.05" cy="85.91" fill="#132e65"></circle><circle r="5" cx="965.83" cy="192.33" fill="#132e65"></circle><circle r="5" cx="996.96" cy="359.41" fill="#132e65"></circle><circle r="5" cx="993.93" cy="511.77" fill="#132e65"></circle><circle r="5" cx="986.64" cy="683.72" fill="#132e65"></circle><circle r="5" cx="1155.38" cy="58.5" fill="#132e65"></circle><circle r="5" cx="1124.32" cy="226.28" fill="#132e65"></circle><circle r="5" cx="1132.8" cy="356.42" fill="#132e65"></circle><circle r="5" cx="1104.76" cy="531.74" fill="#132e65"></circle><circle r="5" cx="1123.43" cy="659.42" fill="#132e65"></circle><circle r="5" cx="1302.04" cy="48.36" fill="#132e65"></circle><circle r="5" cx="1276.13" cy="199.81" fill="#132e65"></circle><circle r="5" cx="1259.8" cy="410.69" fill="#132e65"></circle><circle r="5" cx="1269.51" cy="503.54" fill="#132e65"></circle><circle r="5" cx="1294.28" cy="682.95" fill="#132e65"></circle><circle r="5" cx="1440.37" cy="-80.46" fill="#132e65"></circle><circle r="5" cx="1435.72" cy="44.94" fill="#132e65"></circle><circle r="5" cx="1426.63" cy="255.06" fill="#132e65"></circle><circle r="5" cx="1410.35" cy="363.81" fill="#132e65"></circle><circle r="5" cx="1422.43" cy="499.81" fill="#132e65"></circle><circle r="5" cx="1395.68" cy="673.17" fill="#132e65"></circle><circle r="5" cx="1576.41" cy="-76.69" fill="#132e65"></circle><circle r="5" cx="1580.38" cy="110.54" fill="#132e65"></circle><circle r="5" cx="1572.56" cy="229.29" fill="#132e65"></circle><circle r="5" cx="1585.92" cy="365.48" fill="#132e65"></circle><circle r="5" cx="1571.36" cy="511.53" fill="#132e65"></circle><circle r="5" cx="1572.57" cy="657.34" fill="#132e65"></circle><path d="M491.43 496.55L491.43 496.55" stroke="hsl(228.5, 77.2%, 51.5%)" stroke-width="1.5"></path><path d="M491.43 496.55L347.59 548.85" stroke="hsl(228.5, 77.2%, 51.5%)" stroke-width="1.5"></path><path d="M491.43 496.55L661.98 556.18" stroke="hsl(228.5, 77.2%, 51.5%)" stroke-width="1.5"></path><path d="M491.43 496.55L645.57 390.48" stroke="hsl(228.5, 77.2%, 51.5%)" stroke-width="1.5"></path><path d="M554.69 703.47L554.69 703.47" stroke="hsl(228.5, 77.2%, 51.5%)" stroke-width="1.5"></path><path d="M554.69 703.47L668.65 663.88" stroke="hsl(228.5, 77.2%, 51.5%)" stroke-width="1.5"></path><path d="M554.69 703.47L401.94 694.45" stroke="hsl(228.5, 77.2%, 51.5%)" stroke-width="1.5"></path><path d="M554.69 703.47L661.98 556.18" stroke="hsl(228.5, 77.2%, 51.5%)" stroke-width="1.5"></path><path d="M554.69 703.47L491.43 496.55" stroke="hsl(228.5, 77.2%, 51.5%)" stroke-width="1.5"></path><path d="M668.65 663.88L668.65 663.88" stroke="hsl(228.5, 77.2%, 51.5%)" stroke-width="1.5"></path><path d="M668.65 663.88L661.98 556.18" stroke="hsl(228.5, 77.2%, 51.5%)" stroke-width="1.5"></path><path d="M668.65 663.88L844.02 710.88" stroke="hsl(228.5, 77.2%, 51.5%)" stroke-width="1.5"></path><path d="M790.47 363.41L790.47 363.41" stroke="hsl(228.5, 77.2%, 51.5%)" stroke-width="1.5"></path><path d="M790.47 363.41L645.57 390.48" stroke="hsl(228.5, 77.2%, 51.5%)" stroke-width="1.5"></path><path d="M790.47 363.41L949.7 400.36" stroke="hsl(228.5, 77.2%, 51.5%)" stroke-width="1.5"></path><path d="M790.47 363.41L979.88 250" stroke="hsl(228.5, 77.2%, 51.5%)" stroke-width="1.5"></path><path d="M790.47 363.41L661.98 556.18" stroke="hsl(228.5, 77.2%, 51.5%)" stroke-width="1.5"></path><path d="M790.47 363.41L948.2 559.54" stroke="hsl(228.5, 77.2%, 51.5%)" stroke-width="1.5"></path><path d="M790.47 363.41L668.65 663.88" stroke="hsl(228.5, 77.2%, 51.5%)" stroke-width="1.5"></path><path d="M961.77 644.36L961.77 644.36" stroke="hsl(228.5, 77.2%, 51.5%)" stroke-width="1.5"></path><path d="M961.77 644.36L948.2 559.54" stroke="hsl(228.5, 77.2%, 51.5%)" stroke-width="1.5"></path><path d="M961.77 644.36L844.02 710.88" stroke="hsl(228.5, 77.2%, 51.5%)" stroke-width="1.5"></path><path d="M961.77 644.36L1105.53 551.7" stroke="hsl(228.5, 77.2%, 51.5%)" stroke-width="1.5"></path><path d="M961.77 644.36L1138.03 637.82" stroke="hsl(228.5, 77.2%, 51.5%)" stroke-width="1.5"></path><path d="M1400.39 111.77L1400.39 111.77" stroke="hsl(228.5, 77.2%, 51.5%)" stroke-width="1.5"></path><path d="M1400.39 111.77L1422.94 204.34" stroke="hsl(228.5, 77.2%, 51.5%)" stroke-width="1.5"></path><path d="M1400.39 111.77L1240.82 49.8" stroke="hsl(228.5, 77.2%, 51.5%)" stroke-width="1.5"></path><path d="M1400.39 111.77L1241.55 190.07" stroke="hsl(228.5, 77.2%, 51.5%)" stroke-width="1.5"></path><path d="M1422.94 204.34L1422.94 204.34" stroke="hsl(228.5, 77.2%, 51.5%)" stroke-width="1.5"></path><path d="M1422.94 204.34L1555.07 248.97" stroke="hsl(228.5, 77.2%, 51.5%)" stroke-width="1.5"></path><path d="M1422.94 204.34L1435.22 372.9" stroke="hsl(228.5, 77.2%, 51.5%)" stroke-width="1.5"></path><path d="M1422.94 204.34L1241.55 190.07" stroke="hsl(228.5, 77.2%, 51.5%)" stroke-width="1.5"></path><path d="M1422.94 204.34L1584.03 344.04" stroke="hsl(228.5, 77.2%, 51.5%)" stroke-width="1.5"></path><path d="M1422.94 204.34L1578.41 57.83" stroke="hsl(228.5, 77.2%, 51.5%)" stroke-width="1.5"></path><path d="M-48.9 510.87L-48.9 510.87" stroke="hsl(228.5, 77.2%, 51.5%)" stroke-width="1.5"></path><path d="M-48.9 510.87L52.69 558.53" stroke="hsl(228.5, 77.2%, 51.5%)" stroke-width="1.5"></path><path d="M-48.9 510.87L78.08 652.76" stroke="hsl(228.5, 77.2%, 51.5%)" stroke-width="1.5"></path><path d="M-48.9 510.87L-110.4 698.64" stroke="hsl(228.5, 77.2%, 51.5%)" stroke-width="1.5"></path><path d="M-48.9 510.87L187.88 501.07" stroke="hsl(228.5, 77.2%, 51.5%)" stroke-width="1.5"></path><path d="M-110.4 698.64L-110.4 698.64" stroke="hsl(228.5, 77.2%, 51.5%)" stroke-width="1.5"></path><path d="M-110.4 698.64L78.08 652.76" stroke="hsl(228.5, 77.2%, 51.5%)" stroke-width="1.5"></path><path d="M-110.4 698.64L52.69 558.53" stroke="hsl(228.5, 77.2%, 51.5%)" stroke-width="1.5"></path><path d="M-110.4 698.64L187.88 501.07" stroke="hsl(228.5, 77.2%, 51.5%)" stroke-width="1.5"></path><path d="M-110.4 698.64L254.67 698.14" stroke="hsl(228.5, 77.2%, 51.5%)" stroke-width="1.5"></path><path d="M-110.4 698.64L347.59 548.85" stroke="hsl(228.5, 77.2%, 51.5%)" stroke-width="1.5"></path><path d="M52.69 558.53L52.69 558.53" stroke="hsl(228.5, 77.2%, 51.5%)" stroke-width="1.5"></path><path d="M52.69 558.53L78.08 652.76" stroke="hsl(228.5, 77.2%, 51.5%)" stroke-width="1.5"></path><path d="M52.69 558.53L187.88 501.07" stroke="hsl(228.5, 77.2%, 51.5%)" stroke-width="1.5"></path><path d="M78.08 652.76L78.08 652.76" stroke="hsl(228.5, 77.2%, 51.5%)" stroke-width="1.5"></path><path d="M78.08 652.76L254.67 698.14" stroke="hsl(228.5, 77.2%, 51.5%)" stroke-width="1.5"></path><path d="M78.08 652.76L187.88 501.07" stroke="hsl(228.5, 77.2%, 51.5%)" stroke-width="1.5"></path><path d="M187.88 501.07L187.88 501.07" stroke="hsl(228.5, 77.2%, 51.5%)" stroke-width="1.5"></path><path d="M187.88 501.07L347.59 548.85" stroke="hsl(228.5, 77.2%, 51.5%)" stroke-width="1.5"></path><path d="M187.88 501.07L254.67 698.14" stroke="hsl(228.5, 77.2%, 51.5%)" stroke-width="1.5"></path><path d="M254.67 698.14L254.67 698.14" stroke="hsl(228.5, 77.2%, 51.5%)" stroke-width="1.5"></path><path d="M254.67 698.14L401.94 694.45" stroke="hsl(228.5, 77.2%, 51.5%)" stroke-width="1.5"></path><path d="M254.67 698.14L347.59 548.85" stroke="hsl(228.5, 77.2%, 51.5%)" stroke-width="1.5"></path><path d="M347.59 548.85L347.59 548.85" stroke="hsl(228.5, 77.2%, 51.5%)" stroke-width="1.5"></path><path d="M347.59 548.85L401.94 694.45" stroke="hsl(228.5, 77.2%, 51.5%)" stroke-width="1.5"></path><path d="M401.94 694.45L401.94 694.45" stroke="hsl(228.5, 77.2%, 51.5%)" stroke-width="1.5"></path><path d="M401.94 694.45L491.43 496.55" stroke="hsl(228.5, 77.2%, 51.5%)" stroke-width="1.5"></path><path d="M401.94 694.45L668.65 663.88" stroke="hsl(228.5, 77.2%, 51.5%)" stroke-width="1.5"></path><path d="M401.94 694.45L187.88 501.07" stroke="hsl(228.5, 77.2%, 51.5%)" stroke-width="1.5"></path><path d="M645.57 390.48L645.57 390.48" stroke="hsl(228.5, 77.2%, 51.5%)" stroke-width="1.5"></path><path d="M645.57 390.48L661.98 556.18" stroke="hsl(228.5, 77.2%, 51.5%)" stroke-width="1.5"></path><path d="M661.98 556.18L661.98 556.18" stroke="hsl(228.5, 77.2%, 51.5%)" stroke-width="1.5"></path><path d="M844.02 710.88L844.02 710.88" stroke="hsl(228.5, 77.2%, 51.5%)" stroke-width="1.5"></path><path d="M979.88 250L979.88 250" stroke="hsl(228.5, 77.2%, 51.5%)" stroke-width="1.5"></path><path d="M979.88 250L1098.81 211.36" stroke="hsl(228.5, 77.2%, 51.5%)" stroke-width="1.5"></path><path d="M979.88 250L949.7 400.36" stroke="hsl(228.5, 77.2%, 51.5%)" stroke-width="1.5"></path><path d="M979.88 250L1124.65 344.62" stroke="hsl(228.5, 77.2%, 51.5%)" stroke-width="1.5"></path><path d="M979.88 250L1241.55 190.07" stroke="hsl(228.5, 77.2%, 51.5%)" stroke-width="1.5"></path><path d="M979.88 250L1252.75 387.35" stroke="hsl(228.5, 77.2%, 51.5%)" stroke-width="1.5"></path><path d="M949.7 400.36L949.7 400.36" stroke="hsl(228.5, 77.2%, 51.5%)" stroke-width="1.5"></path><path d="M949.7 400.36L948.2 559.54" stroke="hsl(228.5, 77.2%, 51.5%)" stroke-width="1.5"></path><path d="M949.7 400.36L1124.65 344.62" stroke="hsl(228.5, 77.2%, 51.5%)" stroke-width="1.5"></path><path d="M949.7 400.36L1105.53 551.7" stroke="hsl(228.5, 77.2%, 51.5%)" stroke-width="1.5"></path><path d="M948.2 559.54L948.2 559.54" stroke="hsl(228.5, 77.2%, 51.5%)" stroke-width="1.5"></path><path d="M948.2 559.54L1105.53 551.7" stroke="hsl(228.5, 77.2%, 51.5%)" stroke-width="1.5"></path><path d="M948.2 559.54L844.02 710.88" stroke="hsl(228.5, 77.2%, 51.5%)" stroke-width="1.5"></path><path d="M948.2 559.54L1138.03 637.82" stroke="hsl(228.5, 77.2%, 51.5%)" stroke-width="1.5"></path><path d="M1098.81 211.36L1098.81 211.36" stroke="hsl(228.5, 77.2%, 51.5%)" stroke-width="1.5"></path><path d="M1098.81 211.36L1124.65 344.62" stroke="hsl(228.5, 77.2%, 51.5%)" stroke-width="1.5"></path><path d="M1098.81 211.36L1241.55 190.07" stroke="hsl(228.5, 77.2%, 51.5%)" stroke-width="1.5"></path><path d="M1124.65 344.62L1124.65 344.62" stroke="hsl(228.5, 77.2%, 51.5%)" stroke-width="1.5"></path><path d="M1124.65 344.62L1252.75 387.35" stroke="hsl(228.5, 77.2%, 51.5%)" stroke-width="1.5"></path><path d="M1105.53 551.7L1105.53 551.7" stroke="hsl(228.5, 77.2%, 51.5%)" stroke-width="1.5"></path><path d="M1105.53 551.7L1138.03 637.82" stroke="hsl(228.5, 77.2%, 51.5%)" stroke-width="1.5"></path><path d="M1105.53 551.7L1253.7 657.23" stroke="hsl(228.5, 77.2%, 51.5%)" stroke-width="1.5"></path><path d="M1138.03 637.82L1138.03 637.82" stroke="hsl(228.5, 77.2%, 51.5%)" stroke-width="1.5"></path><path d="M1138.03 637.82L1253.7 657.23" stroke="hsl(228.5, 77.2%, 51.5%)" stroke-width="1.5"></path><path d="M1138.03 637.82L1287.7 512.41" stroke="hsl(228.5, 77.2%, 51.5%)" stroke-width="1.5"></path><path d="M1138.03 637.82L1252.75 387.35" stroke="hsl(228.5, 77.2%, 51.5%)" stroke-width="1.5"></path><path d="M1310.06 -44.85L1310.06 -44.85" stroke="hsl(228.5, 77.2%, 51.5%)" stroke-width="1.5"></path><path d="M1310.06 -44.85L1240.82 49.8" stroke="hsl(228.5, 77.2%, 51.5%)" stroke-width="1.5"></path><path d="M1310.06 -44.85L1454.95 -66.37" stroke="hsl(228.5, 77.2%, 51.5%)" stroke-width="1.5"></path><path d="M1310.06 -44.85L1400.39 111.77" stroke="hsl(228.5, 77.2%, 51.5%)" stroke-width="1.5"></path><path d="M1310.06 -44.85L1241.55 190.07" stroke="hsl(228.5, 77.2%, 51.5%)" stroke-width="1.5"></path><path d="M1310.06 -44.85L1422.94 204.34" stroke="hsl(228.5, 77.2%, 51.5%)" stroke-width="1.5"></path><path d="M1240.82 49.8L1240.82 49.8" stroke="hsl(228.5, 77.2%, 51.5%)" stroke-width="1.5"></path><path d="M1240.82 49.8L1241.55 190.07" stroke="hsl(228.5, 77.2%, 51.5%)" stroke-width="1.5"></path><path d="M1241.55 190.07L1241.55 190.07" stroke="hsl(228.5, 77.2%, 51.5%)" stroke-width="1.5"></path><path d="M1252.75 387.35L1252.75 387.35" stroke="hsl(228.5, 77.2%, 51.5%)" stroke-width="1.5"></path><path d="M1252.75 387.35L1287.7 512.41" stroke="hsl(228.5, 77.2%, 51.5%)" stroke-width="1.5"></path><path d="M1287.7 512.41L1287.7 512.41" stroke="hsl(228.5, 77.2%, 51.5%)" stroke-width="1.5"></path><path d="M1287.7 512.41L1253.7 657.23" stroke="hsl(228.5, 77.2%, 51.5%)" stroke-width="1.5"></path><path d="M1287.7 512.41L1449.7 495.83" stroke="hsl(228.5, 77.2%, 51.5%)" stroke-width="1.5"></path><path d="M1287.7 512.41L1105.53 551.7" stroke="hsl(228.5, 77.2%, 51.5%)" stroke-width="1.5"></path><path d="M1253.7 657.23L1253.7 657.23" stroke="hsl(228.5, 77.2%, 51.5%)" stroke-width="1.5"></path><path d="M1253.7 657.23L1416.11 664.32" stroke="hsl(228.5, 77.2%, 51.5%)" stroke-width="1.5"></path><path d="M1253.7 657.23L1449.7 495.83" stroke="hsl(228.5, 77.2%, 51.5%)" stroke-width="1.5"></path><path d="M1454.95 -66.37L1454.95 -66.37" stroke="hsl(228.5, 77.2%, 51.5%)" stroke-width="1.5"></path><path d="M1454.95 -66.37L1584.93 -49.67" stroke="hsl(228.5, 77.2%, 51.5%)" stroke-width="1.5"></path><path d="M1454.95 -66.37L1578.41 57.83" stroke="hsl(228.5, 77.2%, 51.5%)" stroke-width="1.5"></path><path d="M1454.95 -66.37L1400.39 111.77" stroke="hsl(228.5, 77.2%, 51.5%)" stroke-width="1.5"></path><path d="M1454.95 -66.37L1240.82 49.8" stroke="hsl(228.5, 77.2%, 51.5%)" stroke-width="1.5"></path><path d="M1454.95 -66.37L1422.94 204.34" stroke="hsl(228.5, 77.2%, 51.5%)" stroke-width="1.5"></path><path d="M1435.22 372.9L1435.22 372.9" stroke="hsl(228.5, 77.2%, 51.5%)" stroke-width="1.5"></path><path d="M1435.22 372.9L1449.7 495.83" stroke="hsl(228.5, 77.2%, 51.5%)" stroke-width="1.5"></path><path d="M1435.22 372.9L1584.03 344.04" stroke="hsl(228.5, 77.2%, 51.5%)" stroke-width="1.5"></path><path d="M1435.22 372.9L1555.07 248.97" stroke="hsl(228.5, 77.2%, 51.5%)" stroke-width="1.5"></path><path d="M1449.7 495.83L1449.7 495.83" stroke="hsl(228.5, 77.2%, 51.5%)" stroke-width="1.5"></path><path d="M1449.7 495.83L1581.21 489.47" stroke="hsl(228.5, 77.2%, 51.5%)" stroke-width="1.5"></path><path d="M1416.11 664.32L1416.11 664.32" stroke="hsl(228.5, 77.2%, 51.5%)" stroke-width="1.5"></path><path d="M1416.11 664.32L1449.7 495.83" stroke="hsl(228.5, 77.2%, 51.5%)" stroke-width="1.5"></path><path d="M1584.93 -49.67L1584.93 -49.67" stroke="hsl(228.5, 77.2%, 51.5%)" stroke-width="1.5"></path><path d="M1584.93 -49.67L1578.41 57.83" stroke="hsl(228.5, 77.2%, 51.5%)" stroke-width="1.5"></path><path d="M1584.93 -49.67L1400.39 111.77" stroke="hsl(228.5, 77.2%, 51.5%)" stroke-width="1.5"></path><path d="M1578.41 57.83L1578.41 57.83" stroke="hsl(228.5, 77.2%, 51.5%)" stroke-width="1.5"></path><path d="M1578.41 57.83L1400.39 111.77" stroke="hsl(228.5, 77.2%, 51.5%)" stroke-width="1.5"></path><path d="M1578.41 57.83L1555.07 248.97" stroke="hsl(228.5, 77.2%, 51.5%)" stroke-width="1.5"></path><path d="M1555.07 248.97L1555.07 248.97" stroke="hsl(228.5, 77.2%, 51.5%)" stroke-width="1.5"></path><path d="M1555.07 248.97L1584.03 344.04" stroke="hsl(228.5, 77.2%, 51.5%)" stroke-width="1.5"></path><path d="M1555.07 248.97L1400.39 111.77" stroke="hsl(228.5, 77.2%, 51.5%)" stroke-width="1.5"></path><path d="M1584.03 344.04L1584.03 344.04" stroke="hsl(228.5, 77.2%, 51.5%)" stroke-width="1.5"></path><path d="M1584.03 344.04L1581.21 489.47" stroke="hsl(228.5, 77.2%, 51.5%)" stroke-width="1.5"></path><path d="M1584.03 344.04L1449.7 495.83" stroke="hsl(228.5, 77.2%, 51.5%)" stroke-width="1.5"></path><path d="M1584.03 344.04L1578.41 57.83" stroke="hsl(228.5, 77.2%, 51.5%)" stroke-width="1.5"></path><path d="M1581.21 489.47L1581.21 489.47" stroke="hsl(228.5, 77.2%, 51.5%)" stroke-width="1.5"></path><path d="M1581.21 489.47L1591.2 669.95" stroke="hsl(228.5, 77.2%, 51.5%)" stroke-width="1.5"></path><path d="M1581.21 489.47L1435.22 372.9" stroke="hsl(228.5, 77.2%, 51.5%)" stroke-width="1.5"></path><path d="M1591.2 669.95L1591.2 669.95" stroke="hsl(228.5, 77.2%, 51.5%)" stroke-width="1.5"></path><path d="M1591.2 669.95L1416.11 664.32" stroke="hsl(228.5, 77.2%, 51.5%)" stroke-width="1.5"></path><path d="M1591.2 669.95L1449.7 495.83" stroke="hsl(228.5, 77.2%, 51.5%)" stroke-width="1.5"></path><path d="M1591.2 669.95L1584.03 344.04" stroke="hsl(228.5, 77.2%, 51.5%)" stroke-width="1.5"></path><path d="M1591.2 669.95L1435.22 372.9" stroke="hsl(228.5, 77.2%, 51.5%)" stroke-width="1.5"></path><path d="M1591.2 669.95L1253.7 657.23" stroke="hsl(228.5, 77.2%, 51.5%)" stroke-width="1.5"></path><circle r="25" cx="491.43" cy="496.55" fill="url(#SvgjsRadialGradient1011)"></circle><circle r="25" cx="554.69" cy="703.47" fill="url(#SvgjsRadialGradient1011)"></circle><circle r="25" cx="668.65" cy="663.88" fill="url(#SvgjsRadialGradient1011)"></circle><circle r="25" cx="790.47" cy="363.41" fill="url(#SvgjsRadialGradient1011)"></circle><circle r="25" cx="961.77" cy="644.36" fill="url(#SvgjsRadialGradient1011)"></circle><circle r="25" cx="1400.39" cy="111.77" fill="url(#SvgjsRadialGradient1011)"></circle><circle r="25" cx="1422.94" cy="204.34" fill="url(#SvgjsRadialGradient1011)"></circle><circle r="5" cx="-48.9" cy="510.87" fill="#8b9ad9"></circle><circle r="5" cx="-110.4" cy="698.64" fill="#8b9ad9"></circle><circle r="5" cx="52.69" cy="558.53" fill="#8b9ad9"></circle><circle r="5" cx="78.08" cy="652.76" fill="#8b9ad9"></circle><circle r="5" cx="187.88" cy="501.07" fill="#8b9ad9"></circle><circle r="5" cx="254.67" cy="698.14" fill="#8b9ad9"></circle><circle r="5" cx="347.59" cy="548.85" fill="#8b9ad9"></circle><circle r="5" cx="401.94" cy="694.45" fill="#8b9ad9"></circle><circle r="5" cx="645.57" cy="390.48" fill="#8b9ad9"></circle><circle r="5" cx="661.98" cy="556.18" fill="#8b9ad9"></circle><circle r="5" cx="844.02" cy="710.88" fill="#8b9ad9"></circle><circle r="5" cx="979.88" cy="250" fill="#8b9ad9"></circle><circle r="5" cx="949.7" cy="400.36" fill="#8b9ad9"></circle><circle r="5" cx="948.2" cy="559.54" fill="#8b9ad9"></circle><circle r="5" cx="1098.81" cy="211.36" fill="#8b9ad9"></circle><circle r="5" cx="1124.65" cy="344.62" fill="#8b9ad9"></circle><circle r="5" cx="1105.53" cy="551.7" fill="#8b9ad9"></circle><circle r="5" cx="1138.03" cy="637.82" fill="#8b9ad9"></circle><circle r="5" cx="1310.06" cy="-44.85" fill="#8b9ad9"></circle><circle r="5" cx="1240.82" cy="49.8" fill="#8b9ad9"></circle><circle r="5" cx="1241.55" cy="190.07" fill="#8b9ad9"></circle><circle r="5" cx="1252.75" cy="387.35" fill="#8b9ad9"></circle><circle r="5" cx="1287.7" cy="512.41" fill="#8b9ad9"></circle><circle r="5" cx="1253.7" cy="657.23" fill="#8b9ad9"></circle><circle r="5" cx="1454.95" cy="-66.37" fill="#8b9ad9"></circle><circle r="5" cx="1435.22" cy="372.9" fill="#8b9ad9"></circle><circle r="5" cx="1449.7" cy="495.83" fill="#8b9ad9"></circle><circle r="5" cx="1416.11" cy="664.32" fill="#8b9ad9"></circle><circle r="5" cx="1584.93" cy="-49.67" fill="#8b9ad9"></circle><circle r="5" cx="1578.41" cy="57.83" fill="#8b9ad9"></circle><circle r="5" cx="1555.07" cy="248.97" fill="#8b9ad9"></circle><circle r="5" cx="1584.03" cy="344.04" fill="#8b9ad9"></circle><circle r="5" cx="1581.21" cy="489.47" fill="#8b9ad9"></circle><circle r="5" cx="1591.2" cy="669.95" fill="#8b9ad9"></circle></g><defs><mask id="SvgjsMask1010"><rect width="1440" height="560" fill="#ffffff"></rect></mask><radialGradient id="SvgjsRadialGradient1011"><stop stop-color="#ffffff" offset="0.1"></stop><stop stop-color="#1735b3" offset="0.2"></stop><stop stop-color="rgba(23, 53, 179, 0)" offset="1"></stop></radialGradient></defs></svg>