<svg xmlns="http://www.w3.org/2000/svg" version="1.1" xmlns:xlink="http://www.w3.org/1999/xlink" xmlns:svgjs="http://svgjs.com/svgjs" width="1440" height="560" preserveAspectRatio="none" viewBox="0 0 1440 560"><g mask="url(&quot;#SvgjsMask1003&quot;)" fill="none"><rect width="1440" height="560" x="0" y="0" fill="url(#SvgjsLinearGradient1004)"></rect><path d="M-109.43 355.17L-109.43 355.17" stroke="#132e65" stroke-width="1.5"></path><path d="M-109.43 355.17L-111.31 507.87" stroke="#132e65" stroke-width="1.5"></path><path d="M-109.43 355.17L89.55 375.88" stroke="#132e65" stroke-width="1.5"></path><path d="M-109.43 355.17L102.21 544.01" stroke="#132e65" stroke-width="1.5"></path><path d="M-109.43 355.17L200.36 403.19" stroke="#132e65" stroke-width="1.5"></path><path d="M-109.43 355.17L-64.83 667.37" stroke="#132e65" stroke-width="1.5"></path><path d="M-111.31 507.87L-111.31 507.87" stroke="#132e65" stroke-width="1.5"></path><path d="M-111.31 507.87L-64.83 667.37" stroke="#132e65" stroke-width="1.5"></path><path d="M-111.31 507.87L102.21 544.01" stroke="#132e65" stroke-width="1.5"></path><path d="M-111.31 507.87L67.57 642.27" stroke="#132e65" stroke-width="1.5"></path><path d="M-111.31 507.87L89.55 375.88" stroke="#132e65" stroke-width="1.5"></path><path d="M-111.31 507.87L200.36 403.19" stroke="#132e65" stroke-width="1.5"></path><path d="M-64.83 667.37L-64.83 667.37" stroke="#132e65" stroke-width="1.5"></path><path d="M-64.83 667.37L67.57 642.27" stroke="#132e65" stroke-width="1.5"></path><path d="M-64.83 667.37L102.21 544.01" stroke="#132e65" stroke-width="1.5"></path><path d="M89.55 375.88L89.55 375.88" stroke="#132e65" stroke-width="1.5"></path><path d="M89.55 375.88L200.36 403.19" stroke="#132e65" stroke-width="1.5"></path><path d="M89.55 375.88L102.21 544.01" stroke="#132e65" stroke-width="1.5"></path><path d="M102.21 544.01L102.21 544.01" stroke="#132e65" stroke-width="1.5"></path><path d="M102.21 544.01L67.57 642.27" stroke="#132e65" stroke-width="1.5"></path><path d="M67.57 642.27L67.57 642.27" stroke="#132e65" stroke-width="1.5"></path><path d="M67.57 642.27L247.49 669.17" stroke="#132e65" stroke-width="1.5"></path><path d="M67.57 642.27L234.43 507.96" stroke="#132e65" stroke-width="1.5"></path><path d="M200.36 403.19L200.36 403.19" stroke="#132e65" stroke-width="1.5"></path><path d="M200.36 403.19L234.43 507.96" stroke="#132e65" stroke-width="1.5"></path><path d="M200.36 403.19L102.21 544.01" stroke="#132e65" stroke-width="1.5"></path><path d="M200.36 403.19L392.26 362.58" stroke="#132e65" stroke-width="1.5"></path><path d="M200.36 403.19L365.98 509.12" stroke="#132e65" stroke-width="1.5"></path><path d="M200.36 403.19L247.49 669.17" stroke="#132e65" stroke-width="1.5"></path><path d="M234.43 507.96L234.43 507.96" stroke="#132e65" stroke-width="1.5"></path><path d="M247.49 669.17L247.49 669.17" stroke="#132e65" stroke-width="1.5"></path><path d="M247.49 669.17L382.92 707.23" stroke="#132e65" stroke-width="1.5"></path><path d="M247.49 669.17L234.43 507.96" stroke="#132e65" stroke-width="1.5"></path><path d="M247.49 669.17L102.21 544.01" stroke="#132e65" stroke-width="1.5"></path><path d="M392.26 362.58L392.26 362.58" stroke="#132e65" stroke-width="1.5"></path><path d="M392.26 362.58L365.98 509.12" stroke="#132e65" stroke-width="1.5"></path><path d="M392.26 362.58L538.31 406.05" stroke="#132e65" stroke-width="1.5"></path><path d="M365.98 509.12L365.98 509.12" stroke="#132e65" stroke-width="1.5"></path><path d="M365.98 509.12L234.43 507.96" stroke="#132e65" stroke-width="1.5"></path><path d="M365.98 509.12L537.14 536.76" stroke="#132e65" stroke-width="1.5"></path><path d="M365.98 509.12L382.92 707.23" stroke="#132e65" stroke-width="1.5"></path><path d="M365.98 509.12L247.49 669.17" stroke="#132e65" stroke-width="1.5"></path><path d="M382.92 707.23L382.92 707.23" stroke="#132e65" stroke-width="1.5"></path><path d="M382.92 707.23L555.53 665.64" stroke="#132e65" stroke-width="1.5"></path><path d="M382.92 707.23L537.14 536.76" stroke="#132e65" stroke-width="1.5"></path><path d="M382.92 707.23L234.43 507.96" stroke="#132e65" stroke-width="1.5"></path><path d="M382.92 707.23L688.9 659.27" stroke="#132e65" stroke-width="1.5"></path><path d="M538.31 406.05L538.31 406.05" stroke="#132e65" stroke-width="1.5"></path><path d="M538.31 406.05L650.96 350.17" stroke="#132e65" stroke-width="1.5"></path><path d="M538.31 406.05L537.14 536.76" stroke="#132e65" stroke-width="1.5"></path><path d="M537.14 536.76L537.14 536.76" stroke="#132e65" stroke-width="1.5"></path><path d="M537.14 536.76L555.53 665.64" stroke="#132e65" stroke-width="1.5"></path><path d="M537.14 536.76L698.08 490.58" stroke="#132e65" stroke-width="1.5"></path><path d="M537.14 536.76L688.9 659.27" stroke="#132e65" stroke-width="1.5"></path><path d="M555.53 665.64L555.53 665.64" stroke="#132e65" stroke-width="1.5"></path><path d="M555.53 665.64L688.9 659.27" stroke="#132e65" stroke-width="1.5"></path><path d="M710.88 205L710.88 205" stroke="#132e65" stroke-width="1.5"></path><path d="M710.88 205L818.04 196.15" stroke="#132e65" stroke-width="1.5"></path><path d="M710.88 205L650.96 350.17" stroke="#132e65" stroke-width="1.5"></path><path d="M710.88 205L800.73 352.38" stroke="#132e65" stroke-width="1.5"></path><path d="M650.96 350.17L650.96 350.17" stroke="#132e65" stroke-width="1.5"></path><path d="M650.96 350.17L698.08 490.58" stroke="#132e65" stroke-width="1.5"></path><path d="M650.96 350.17L800.73 352.38" stroke="#132e65" stroke-width="1.5"></path><path d="M698.08 490.58L698.08 490.58" stroke="#132e65" stroke-width="1.5"></path><path d="M698.08 490.58L793.44 549.11" stroke="#132e65" stroke-width="1.5"></path><path d="M688.9 659.27L688.9 659.27" stroke="#132e65" stroke-width="1.5"></path><path d="M688.9 659.27L793.44 549.11" stroke="#132e65" stroke-width="1.5"></path><path d="M688.9 659.27L847.8 707.26" stroke="#132e65" stroke-width="1.5"></path><path d="M688.9 659.27L698.08 490.58" stroke="#132e65" stroke-width="1.5"></path><path d="M688.9 659.27L956.25 649.54" stroke="#132e65" stroke-width="1.5"></path><path d="M818.04 196.15L818.04 196.15" stroke="#132e65" stroke-width="1.5"></path><path d="M818.04 196.15L800.73 352.38" stroke="#132e65" stroke-width="1.5"></path><path d="M818.04 196.15L1002.62 201.15" stroke="#132e65" stroke-width="1.5"></path><path d="M818.04 196.15L1004.32 100.25" stroke="#132e65" stroke-width="1.5"></path><path d="M818.04 196.15L650.96 350.17" stroke="#132e65" stroke-width="1.5"></path><path d="M818.04 196.15L984.62 352.67" stroke="#132e65" stroke-width="1.5"></path><path d="M800.73 352.38L800.73 352.38" stroke="#132e65" stroke-width="1.5"></path><path d="M800.73 352.38L698.08 490.58" stroke="#132e65" stroke-width="1.5"></path><path d="M793.44 549.11L793.44 549.11" stroke="#132e65" stroke-width="1.5"></path><path d="M793.44 549.11L957.51 551.36" stroke="#132e65" stroke-width="1.5"></path><path d="M793.44 549.11L847.8 707.26" stroke="#132e65" stroke-width="1.5"></path><path d="M793.44 549.11L956.25 649.54" stroke="#132e65" stroke-width="1.5"></path><path d="M847.8 707.26L847.8 707.26" stroke="#132e65" stroke-width="1.5"></path><path d="M847.8 707.26L956.25 649.54" stroke="#132e65" stroke-width="1.5"></path><path d="M1004.81 -108.25L1004.81 -108.25" stroke="#132e65" stroke-width="1.5"></path><path d="M1004.81 -108.25L1126.59 -69.74" stroke="#132e65" stroke-width="1.5"></path><path d="M1004.81 -108.25L1132.29 54.11" stroke="#132e65" stroke-width="1.5"></path><path d="M1004.32 100.25L1004.32 100.25" stroke="#132e65" stroke-width="1.5"></path><path d="M1004.32 100.25L1002.62 201.15" stroke="#132e65" stroke-width="1.5"></path><path d="M1004.32 100.25L1132.29 54.11" stroke="#132e65" stroke-width="1.5"></path><path d="M1004.32 100.25L1144.66 224.17" stroke="#132e65" stroke-width="1.5"></path><path d="M1004.32 100.25L1004.81 -108.25" stroke="#132e65" stroke-width="1.5"></path><path d="M1004.32 100.25L1126.59 -69.74" stroke="#132e65" stroke-width="1.5"></path><path d="M1002.62 201.15L1002.62 201.15" stroke="#132e65" stroke-width="1.5"></path><path d="M1002.62 201.15L1144.66 224.17" stroke="#132e65" stroke-width="1.5"></path><path d="M1002.62 201.15L984.62 352.67" stroke="#132e65" stroke-width="1.5"></path><path d="M1002.62 201.15L1132.29 54.11" stroke="#132e65" stroke-width="1.5"></path><path d="M1002.62 201.15L1154.82 355.37" stroke="#132e65" stroke-width="1.5"></path><path d="M984.62 352.67L984.62 352.67" stroke="#132e65" stroke-width="1.5"></path><path d="M984.62 352.67L1154.82 355.37" stroke="#132e65" stroke-width="1.5"></path><path d="M984.62 352.67L800.73 352.38" stroke="#132e65" stroke-width="1.5"></path><path d="M984.62 352.67L1107.99 505.47" stroke="#132e65" stroke-width="1.5"></path><path d="M957.51 551.36L957.51 551.36" stroke="#132e65" stroke-width="1.5"></path><path d="M957.51 551.36L956.25 649.54" stroke="#132e65" stroke-width="1.5"></path><path d="M957.51 551.36L1107.99 505.47" stroke="#132e65" stroke-width="1.5"></path><path d="M957.51 551.36L847.8 707.26" stroke="#132e65" stroke-width="1.5"></path><path d="M957.51 551.36L1118.01 660.09" stroke="#132e65" stroke-width="1.5"></path><path d="M957.51 551.36L984.62 352.67" stroke="#132e65" stroke-width="1.5"></path><path d="M956.25 649.54L956.25 649.54" stroke="#132e65" stroke-width="1.5"></path><path d="M956.25 649.54L1118.01 660.09" stroke="#132e65" stroke-width="1.5"></path><path d="M1126.59 -69.74L1126.59 -69.74" stroke="#132e65" stroke-width="1.5"></path><path d="M1126.59 -69.74L1244.23 -94.43" stroke="#132e65" stroke-width="1.5"></path><path d="M1126.59 -69.74L1132.29 54.11" stroke="#132e65" stroke-width="1.5"></path><path d="M1132.29 54.11L1132.29 54.11" stroke="#132e65" stroke-width="1.5"></path><path d="M1132.29 54.11L1267.3 79.84" stroke="#132e65" stroke-width="1.5"></path><path d="M1132.29 54.11L1144.66 224.17" stroke="#132e65" stroke-width="1.5"></path><path d="M1132.29 54.11L1244.23 -94.43" stroke="#132e65" stroke-width="1.5"></path><path d="M1132.29 54.11L1273.68 188.89" stroke="#132e65" stroke-width="1.5"></path><path d="M1144.66 224.17L1144.66 224.17" stroke="#132e65" stroke-width="1.5"></path><path d="M1144.66 224.17L1154.82 355.37" stroke="#132e65" stroke-width="1.5"></path><path d="M1144.66 224.17L1273.68 188.89" stroke="#132e65" stroke-width="1.5"></path><path d="M1154.82 355.37L1154.82 355.37" stroke="#132e65" stroke-width="1.5"></path><path d="M1154.82 355.37L1239.94 354.4" stroke="#132e65" stroke-width="1.5"></path><path d="M1107.99 505.47L1107.99 505.47" stroke="#132e65" stroke-width="1.5"></path><path d="M1107.99 505.47L1118.01 660.09" stroke="#132e65" stroke-width="1.5"></path><path d="M1107.99 505.47L1154.82 355.37" stroke="#132e65" stroke-width="1.5"></path><path d="M1118.01 660.09L1118.01 660.09" stroke="#132e65" stroke-width="1.5"></path><path d="M1118.01 660.09L1257.44 688.04" stroke="#132e65" stroke-width="1.5"></path><path d="M1118.01 660.09L1304.81 526.59" stroke="#132e65" stroke-width="1.5"></path><path d="M1244.23 -94.43L1244.23 -94.43" stroke="#132e65" stroke-width="1.5"></path><path d="M1244.23 -94.43L1404.41 -37.51" stroke="#132e65" stroke-width="1.5"></path><path d="M1244.23 -94.43L1267.3 79.84" stroke="#132e65" stroke-width="1.5"></path><path d="M1267.3 79.84L1267.3 79.84" stroke="#132e65" stroke-width="1.5"></path><path d="M1267.3 79.84L1273.68 188.89" stroke="#132e65" stroke-width="1.5"></path><path d="M1267.3 79.84L1404.41 -37.51" stroke="#132e65" stroke-width="1.5"></path><path d="M1273.68 188.89L1273.68 188.89" stroke="#132e65" stroke-width="1.5"></path><path d="M1239.94 354.4L1239.94 354.4" stroke="#132e65" stroke-width="1.5"></path><path d="M1239.94 354.4L1144.66 224.17" stroke="#132e65" stroke-width="1.5"></path><path d="M1304.81 526.59L1304.81 526.59" stroke="#132e65" stroke-width="1.5"></path><path d="M1304.81 526.59L1412.6 510.34" stroke="#132e65" stroke-width="1.5"></path><path d="M1304.81 526.59L1392.36 640.39" stroke="#132e65" stroke-width="1.5"></path><path d="M1257.44 688.04L1257.44 688.04" stroke="#132e65" stroke-width="1.5"></path><path d="M1257.44 688.04L1392.36 640.39" stroke="#132e65" stroke-width="1.5"></path><path d="M1257.44 688.04L1304.81 526.59" stroke="#132e65" stroke-width="1.5"></path><path d="M1257.44 688.04L1412.6 510.34" stroke="#132e65" stroke-width="1.5"></path><path d="M1257.44 688.04L1107.99 505.47" stroke="#132e65" stroke-width="1.5"></path><path d="M1404.41 -37.51L1404.41 -37.51" stroke="#132e65" stroke-width="1.5"></path><path d="M1404.41 -37.51L1588.08 -66.74" stroke="#132e65" stroke-width="1.5"></path><path d="M1417.83 249.45L1417.83 249.45" stroke="#132e65" stroke-width="1.5"></path><path d="M1417.83 249.45L1451.05 344.7" stroke="#132e65" stroke-width="1.5"></path><path d="M1417.83 249.45L1273.68 188.89" stroke="#132e65" stroke-width="1.5"></path><path d="M1417.83 249.45L1239.94 354.4" stroke="#132e65" stroke-width="1.5"></path><path d="M1451.05 344.7L1451.05 344.7" stroke="#132e65" stroke-width="1.5"></path><path d="M1451.05 344.7L1412.6 510.34" stroke="#132e65" stroke-width="1.5"></path><path d="M1412.6 510.34L1412.6 510.34" stroke="#132e65" stroke-width="1.5"></path><path d="M1412.6 510.34L1392.36 640.39" stroke="#132e65" stroke-width="1.5"></path><path d="M1392.36 640.39L1392.36 640.39" stroke="#132e65" stroke-width="1.5"></path><path d="M1588.08 -66.74L1588.08 -66.74" stroke="#132e65" stroke-width="1.5"></path><path d="M1588.08 -66.74L1592.48 78.63" stroke="#132e65" stroke-width="1.5"></path><path d="M1588.08 -66.74L1244.23 -94.43" stroke="#132e65" stroke-width="1.5"></path><path d="M1588.08 -66.74L1267.3 79.84" stroke="#132e65" stroke-width="1.5"></path><path d="M1588.08 -66.74L1417.83 249.45" stroke="#132e65" stroke-width="1.5"></path><path d="M1592.48 78.63L1592.48 78.63" stroke="#132e65" stroke-width="1.5"></path><path d="M1592.48 78.63L1404.41 -37.51" stroke="#132e65" stroke-width="1.5"></path><path d="M1568.77 537.64L1568.77 537.64" stroke="#132e65" stroke-width="1.5"></path><path d="M1568.77 537.64L1564.67 672.52" stroke="#132e65" stroke-width="1.5"></path><path d="M1568.77 537.64L1412.6 510.34" stroke="#132e65" stroke-width="1.5"></path><path d="M1568.77 537.64L1392.36 640.39" stroke="#132e65" stroke-width="1.5"></path><path d="M1568.77 537.64L1451.05 344.7" stroke="#132e65" stroke-width="1.5"></path><path d="M1564.67 672.52L1564.67 672.52" stroke="#132e65" stroke-width="1.5"></path><path d="M1564.67 672.52L1392.36 640.39" stroke="#132e65" stroke-width="1.5"></path><path d="M1564.67 672.52L1412.6 510.34" stroke="#132e65" stroke-width="1.5"></path><path d="M1564.67 672.52L1304.81 526.59" stroke="#132e65" stroke-width="1.5"></path><path d="M1564.67 672.52L1257.44 688.04" stroke="#132e65" stroke-width="1.5"></path><path d="M1564.67 672.52L1451.05 344.7" stroke="#132e65" stroke-width="1.5"></path><circle r="5" cx="-109.43" cy="355.17" fill="#132e65"></circle><circle r="5" cx="-111.31" cy="507.87" fill="#132e65"></circle><circle r="5" cx="-64.83" cy="667.37" fill="#132e65"></circle><circle r="5" cx="89.55" cy="375.88" fill="#132e65"></circle><circle r="5" cx="102.21" cy="544.01" fill="#132e65"></circle><circle r="5" cx="67.57" cy="642.27" fill="#132e65"></circle><circle r="5" cx="200.36" cy="403.19" fill="#132e65"></circle><circle r="5" cx="234.43" cy="507.96" fill="#132e65"></circle><circle r="5" cx="247.49" cy="669.17" fill="#132e65"></circle><circle r="5" cx="392.26" cy="362.58" fill="#132e65"></circle><circle r="5" cx="365.98" cy="509.12" fill="#132e65"></circle><circle r="5" cx="382.92" cy="707.23" fill="#132e65"></circle><circle r="5" cx="538.31" cy="406.05" fill="#132e65"></circle><circle r="5" cx="537.14" cy="536.76" fill="#132e65"></circle><circle r="5" cx="555.53" cy="665.64" fill="#132e65"></circle><circle r="5" cx="710.88" cy="205" fill="#132e65"></circle><circle r="5" cx="650.96" cy="350.17" fill="#132e65"></circle><circle r="5" cx="698.08" cy="490.58" fill="#132e65"></circle><circle r="5" cx="688.9" cy="659.27" fill="#132e65"></circle><circle r="5" cx="818.04" cy="196.15" fill="#132e65"></circle><circle r="5" cx="800.73" cy="352.38" fill="#132e65"></circle><circle r="5" cx="793.44" cy="549.11" fill="#132e65"></circle><circle r="5" cx="847.8" cy="707.26" fill="#132e65"></circle><circle r="5" cx="1004.81" cy="-108.25" fill="#132e65"></circle><circle r="5" cx="1004.32" cy="100.25" fill="#132e65"></circle><circle r="5" cx="1002.62" cy="201.15" fill="#132e65"></circle><circle r="5" cx="984.62" cy="352.67" fill="#132e65"></circle><circle r="5" cx="957.51" cy="551.36" fill="#132e65"></circle><circle r="5" cx="956.25" cy="649.54" fill="#132e65"></circle><circle r="5" cx="1126.59" cy="-69.74" fill="#132e65"></circle><circle r="5" cx="1132.29" cy="54.11" fill="#132e65"></circle><circle r="5" cx="1144.66" cy="224.17" fill="#132e65"></circle><circle r="5" cx="1154.82" cy="355.37" fill="#132e65"></circle><circle r="5" cx="1107.99" cy="505.47" fill="#132e65"></circle><circle r="5" cx="1118.01" cy="660.09" fill="#132e65"></circle><circle r="5" cx="1244.23" cy="-94.43" fill="#132e65"></circle><circle r="5" cx="1267.3" cy="79.84" fill="#132e65"></circle><circle r="5" cx="1273.68" cy="188.89" fill="#132e65"></circle><circle r="5" cx="1239.94" cy="354.4" fill="#132e65"></circle><circle r="5" cx="1304.81" cy="526.59" fill="#132e65"></circle><circle r="5" cx="1257.44" cy="688.04" fill="#132e65"></circle><circle r="5" cx="1404.41" cy="-37.51" fill="#132e65"></circle><circle r="5" cx="1417.83" cy="249.45" fill="#132e65"></circle><circle r="5" cx="1451.05" cy="344.7" fill="#132e65"></circle><circle r="5" cx="1412.6" cy="510.34" fill="#132e65"></circle><circle r="5" cx="1392.36" cy="640.39" fill="#132e65"></circle><circle r="5" cx="1588.08" cy="-66.74" fill="#132e65"></circle><circle r="5" cx="1592.48" cy="78.63" fill="#132e65"></circle><circle r="5" cx="1568.77" cy="537.64" fill="#132e65"></circle><circle r="5" cx="1564.67" cy="672.52" fill="#132e65"></circle><path d="M-95.7 515.88L-95.7 515.88" stroke="hsl(228.5, 77.2%, 51.5%)" stroke-width="1.5"></path><path d="M-95.7 515.88L-88.65 647.17" stroke="hsl(228.5, 77.2%, 51.5%)" stroke-width="1.5"></path><path d="M-95.7 515.88L71.02 520.97" stroke="hsl(228.5, 77.2%, 51.5%)" stroke-width="1.5"></path><path d="M-95.7 515.88L40.95 671.8" stroke="hsl(228.5, 77.2%, 51.5%)" stroke-width="1.5"></path><path d="M-95.7 515.88L210.43 637.87" stroke="hsl(228.5, 77.2%, 51.5%)" stroke-width="1.5"></path><path d="M-95.7 515.88L251.99 543.92" stroke="hsl(228.5, 77.2%, 51.5%)" stroke-width="1.5"></path><path d="M40.95 671.8L40.95 671.8" stroke="hsl(228.5, 77.2%, 51.5%)" stroke-width="1.5"></path><path d="M40.95 671.8L-88.65 647.17" stroke="hsl(228.5, 77.2%, 51.5%)" stroke-width="1.5"></path><path d="M40.95 671.8L71.02 520.97" stroke="hsl(228.5, 77.2%, 51.5%)" stroke-width="1.5"></path><path d="M40.95 671.8L210.43 637.87" stroke="hsl(228.5, 77.2%, 51.5%)" stroke-width="1.5"></path><path d="M40.95 671.8L251.99 543.92" stroke="hsl(228.5, 77.2%, 51.5%)" stroke-width="1.5"></path><path d="M40.95 671.8L394.94 544.47" stroke="hsl(228.5, 77.2%, 51.5%)" stroke-width="1.5"></path><path d="M513.9 510.31L513.9 510.31" stroke="hsl(228.5, 77.2%, 51.5%)" stroke-width="1.5"></path><path d="M513.9 510.31L394.94 544.47" stroke="hsl(228.5, 77.2%, 51.5%)" stroke-width="1.5"></path><path d="M513.9 510.31L645.97 491.89" stroke="hsl(228.5, 77.2%, 51.5%)" stroke-width="1.5"></path><path d="M513.9 510.31L509.81 689.04" stroke="hsl(228.5, 77.2%, 51.5%)" stroke-width="1.5"></path><path d="M513.9 510.31L679.56 388.16" stroke="hsl(228.5, 77.2%, 51.5%)" stroke-width="1.5"></path><path d="M513.9 510.31L710.36 686.08" stroke="hsl(228.5, 77.2%, 51.5%)" stroke-width="1.5"></path><path d="M828.04 361.92L828.04 361.92" stroke="hsl(228.5, 77.2%, 51.5%)" stroke-width="1.5"></path><path d="M828.04 361.92L836.36 488.43" stroke="hsl(228.5, 77.2%, 51.5%)" stroke-width="1.5"></path><path d="M828.04 361.92L955.4 360.94" stroke="hsl(228.5, 77.2%, 51.5%)" stroke-width="1.5"></path><path d="M828.04 361.92L679.56 388.16" stroke="hsl(228.5, 77.2%, 51.5%)" stroke-width="1.5"></path><path d="M836.36 488.43L836.36 488.43" stroke="hsl(228.5, 77.2%, 51.5%)" stroke-width="1.5"></path><path d="M836.36 488.43L998.62 519.37" stroke="hsl(228.5, 77.2%, 51.5%)" stroke-width="1.5"></path><path d="M836.36 488.43L955.4 360.94" stroke="hsl(228.5, 77.2%, 51.5%)" stroke-width="1.5"></path><path d="M836.36 488.43L801.1 670.02" stroke="hsl(228.5, 77.2%, 51.5%)" stroke-width="1.5"></path><path d="M1098.64 357.44L1098.64 357.44" stroke="hsl(228.5, 77.2%, 51.5%)" stroke-width="1.5"></path><path d="M1098.64 357.44L955.4 360.94" stroke="hsl(228.5, 77.2%, 51.5%)" stroke-width="1.5"></path><path d="M1098.64 357.44L1112.82 203.04" stroke="hsl(228.5, 77.2%, 51.5%)" stroke-width="1.5"></path><path d="M1109.12 536.44L1109.12 536.44" stroke="hsl(228.5, 77.2%, 51.5%)" stroke-width="1.5"></path><path d="M1109.12 536.44L1132.51 642.87" stroke="hsl(228.5, 77.2%, 51.5%)" stroke-width="1.5"></path><path d="M1109.12 536.44L998.62 519.37" stroke="hsl(228.5, 77.2%, 51.5%)" stroke-width="1.5"></path><path d="M1307.99 -95.33L1307.99 -95.33" stroke="hsl(228.5, 77.2%, 51.5%)" stroke-width="1.5"></path><path d="M1307.99 -95.33L1389.15 -95.1" stroke="hsl(228.5, 77.2%, 51.5%)" stroke-width="1.5"></path><path d="M1307.99 -95.33L1258.78 101.44" stroke="hsl(228.5, 77.2%, 51.5%)" stroke-width="1.5"></path><path d="M1307.99 -95.33L1404.26 86.7" stroke="hsl(228.5, 77.2%, 51.5%)" stroke-width="1.5"></path><path d="M1307.99 -95.33L1157.18 105.91" stroke="hsl(228.5, 77.2%, 51.5%)" stroke-width="1.5"></path><path d="M1307.99 -95.33L1593.43 -60.35" stroke="hsl(228.5, 77.2%, 51.5%)" stroke-width="1.5"></path><path d="M1258.78 101.44L1258.78 101.44" stroke="hsl(228.5, 77.2%, 51.5%)" stroke-width="1.5"></path><path d="M1258.78 101.44L1157.18 105.91" stroke="hsl(228.5, 77.2%, 51.5%)" stroke-width="1.5"></path><path d="M1258.78 101.44L1404.26 86.7" stroke="hsl(228.5, 77.2%, 51.5%)" stroke-width="1.5"></path><path d="M1258.78 101.44L1298.96 254.94" stroke="hsl(228.5, 77.2%, 51.5%)" stroke-width="1.5"></path><path d="M1258.78 101.44L1112.82 203.04" stroke="hsl(228.5, 77.2%, 51.5%)" stroke-width="1.5"></path><path d="M1267.01 528.83L1267.01 528.83" stroke="hsl(228.5, 77.2%, 51.5%)" stroke-width="1.5"></path><path d="M1267.01 528.83L1276.29 675.51" stroke="hsl(228.5, 77.2%, 51.5%)" stroke-width="1.5"></path><path d="M1267.01 528.83L1109.12 536.44" stroke="hsl(228.5, 77.2%, 51.5%)" stroke-width="1.5"></path><path d="M1267.01 528.83L1304.04 371.7" stroke="hsl(228.5, 77.2%, 51.5%)" stroke-width="1.5"></path><path d="M1267.01 528.83L1439.6 559.54" stroke="hsl(228.5, 77.2%, 51.5%)" stroke-width="1.5"></path><path d="M1445.12 260.97L1445.12 260.97" stroke="hsl(228.5, 77.2%, 51.5%)" stroke-width="1.5"></path><path d="M1445.12 260.97L1424.28 371.84" stroke="hsl(228.5, 77.2%, 51.5%)" stroke-width="1.5"></path><path d="M1445.12 260.97L1298.96 254.94" stroke="hsl(228.5, 77.2%, 51.5%)" stroke-width="1.5"></path><path d="M1445.12 260.97L1566.63 347.03" stroke="hsl(228.5, 77.2%, 51.5%)" stroke-width="1.5"></path><path d="M1445.12 260.97L1594.49 196.74" stroke="hsl(228.5, 77.2%, 51.5%)" stroke-width="1.5"></path><path d="M1445.12 260.97L1404.26 86.7" stroke="hsl(228.5, 77.2%, 51.5%)" stroke-width="1.5"></path><path d="M1439.6 559.54L1439.6 559.54" stroke="hsl(228.5, 77.2%, 51.5%)" stroke-width="1.5"></path><path d="M1439.6 559.54L1538.6 534.11" stroke="hsl(228.5, 77.2%, 51.5%)" stroke-width="1.5"></path><path d="M1439.6 559.54L1392.84 707.31" stroke="hsl(228.5, 77.2%, 51.5%)" stroke-width="1.5"></path><path d="M1538.6 534.11L1538.6 534.11" stroke="hsl(228.5, 77.2%, 51.5%)" stroke-width="1.5"></path><path d="M1607.46 671.49L1607.46 671.49" stroke="hsl(228.5, 77.2%, 51.5%)" stroke-width="1.5"></path><path d="M1607.46 671.49L1538.6 534.11" stroke="hsl(228.5, 77.2%, 51.5%)" stroke-width="1.5"></path><path d="M1607.46 671.49L1439.6 559.54" stroke="hsl(228.5, 77.2%, 51.5%)" stroke-width="1.5"></path><path d="M1607.46 671.49L1392.84 707.31" stroke="hsl(228.5, 77.2%, 51.5%)" stroke-width="1.5"></path><path d="M1607.46 671.49L1566.63 347.03" stroke="hsl(228.5, 77.2%, 51.5%)" stroke-width="1.5"></path><path d="M-88.65 647.17L-88.65 647.17" stroke="hsl(228.5, 77.2%, 51.5%)" stroke-width="1.5"></path><path d="M-88.65 647.17L71.02 520.97" stroke="hsl(228.5, 77.2%, 51.5%)" stroke-width="1.5"></path><path d="M-88.65 647.17L210.43 637.87" stroke="hsl(228.5, 77.2%, 51.5%)" stroke-width="1.5"></path><path d="M-88.65 647.17L251.99 543.92" stroke="hsl(228.5, 77.2%, 51.5%)" stroke-width="1.5"></path><path d="M71.02 520.97L71.02 520.97" stroke="hsl(228.5, 77.2%, 51.5%)" stroke-width="1.5"></path><path d="M71.02 520.97L210.43 637.87" stroke="hsl(228.5, 77.2%, 51.5%)" stroke-width="1.5"></path><path d="M251.99 543.92L251.99 543.92" stroke="hsl(228.5, 77.2%, 51.5%)" stroke-width="1.5"></path><path d="M251.99 543.92L210.43 637.87" stroke="hsl(228.5, 77.2%, 51.5%)" stroke-width="1.5"></path><path d="M251.99 543.92L394.94 544.47" stroke="hsl(228.5, 77.2%, 51.5%)" stroke-width="1.5"></path><path d="M210.43 637.87L210.43 637.87" stroke="hsl(228.5, 77.2%, 51.5%)" stroke-width="1.5"></path><path d="M394.94 544.47L394.94 544.47" stroke="hsl(228.5, 77.2%, 51.5%)" stroke-width="1.5"></path><path d="M394.94 544.47L509.81 689.04" stroke="hsl(228.5, 77.2%, 51.5%)" stroke-width="1.5"></path><path d="M394.94 544.47L210.43 637.87" stroke="hsl(228.5, 77.2%, 51.5%)" stroke-width="1.5"></path><path d="M509.81 689.04L509.81 689.04" stroke="hsl(228.5, 77.2%, 51.5%)" stroke-width="1.5"></path><path d="M509.81 689.04L710.36 686.08" stroke="hsl(228.5, 77.2%, 51.5%)" stroke-width="1.5"></path><path d="M509.81 689.04L645.97 491.89" stroke="hsl(228.5, 77.2%, 51.5%)" stroke-width="1.5"></path><path d="M679.56 388.16L679.56 388.16" stroke="hsl(228.5, 77.2%, 51.5%)" stroke-width="1.5"></path><path d="M679.56 388.16L645.97 491.89" stroke="hsl(228.5, 77.2%, 51.5%)" stroke-width="1.5"></path><path d="M679.56 388.16L836.36 488.43" stroke="hsl(228.5, 77.2%, 51.5%)" stroke-width="1.5"></path><path d="M645.97 491.89L645.97 491.89" stroke="hsl(228.5, 77.2%, 51.5%)" stroke-width="1.5"></path><path d="M645.97 491.89L836.36 488.43" stroke="hsl(228.5, 77.2%, 51.5%)" stroke-width="1.5"></path><path d="M645.97 491.89L710.36 686.08" stroke="hsl(228.5, 77.2%, 51.5%)" stroke-width="1.5"></path><path d="M645.97 491.89L828.04 361.92" stroke="hsl(228.5, 77.2%, 51.5%)" stroke-width="1.5"></path><path d="M710.36 686.08L710.36 686.08" stroke="hsl(228.5, 77.2%, 51.5%)" stroke-width="1.5"></path><path d="M710.36 686.08L801.1 670.02" stroke="hsl(228.5, 77.2%, 51.5%)" stroke-width="1.5"></path><path d="M801.1 670.02L801.1 670.02" stroke="hsl(228.5, 77.2%, 51.5%)" stroke-width="1.5"></path><path d="M801.1 670.02L1005.21 684.59" stroke="hsl(228.5, 77.2%, 51.5%)" stroke-width="1.5"></path><path d="M955.4 360.94L955.4 360.94" stroke="hsl(228.5, 77.2%, 51.5%)" stroke-width="1.5"></path><path d="M955.4 360.94L998.62 519.37" stroke="hsl(228.5, 77.2%, 51.5%)" stroke-width="1.5"></path><path d="M955.4 360.94L1112.82 203.04" stroke="hsl(228.5, 77.2%, 51.5%)" stroke-width="1.5"></path><path d="M955.4 360.94L1109.12 536.44" stroke="hsl(228.5, 77.2%, 51.5%)" stroke-width="1.5"></path><path d="M998.62 519.37L998.62 519.37" stroke="hsl(228.5, 77.2%, 51.5%)" stroke-width="1.5"></path><path d="M1005.21 684.59L1005.21 684.59" stroke="hsl(228.5, 77.2%, 51.5%)" stroke-width="1.5"></path><path d="M1005.21 684.59L1132.51 642.87" stroke="hsl(228.5, 77.2%, 51.5%)" stroke-width="1.5"></path><path d="M1005.21 684.59L998.62 519.37" stroke="hsl(228.5, 77.2%, 51.5%)" stroke-width="1.5"></path><path d="M1005.21 684.59L1109.12 536.44" stroke="hsl(228.5, 77.2%, 51.5%)" stroke-width="1.5"></path><path d="M1157.18 105.91L1157.18 105.91" stroke="hsl(228.5, 77.2%, 51.5%)" stroke-width="1.5"></path><path d="M1157.18 105.91L1112.82 203.04" stroke="hsl(228.5, 77.2%, 51.5%)" stroke-width="1.5"></path><path d="M1112.82 203.04L1112.82 203.04" stroke="hsl(228.5, 77.2%, 51.5%)" stroke-width="1.5"></path><path d="M1112.82 203.04L1298.96 254.94" stroke="hsl(228.5, 77.2%, 51.5%)" stroke-width="1.5"></path><path d="M1132.51 642.87L1132.51 642.87" stroke="hsl(228.5, 77.2%, 51.5%)" stroke-width="1.5"></path><path d="M1132.51 642.87L1276.29 675.51" stroke="hsl(228.5, 77.2%, 51.5%)" stroke-width="1.5"></path><path d="M1132.51 642.87L1267.01 528.83" stroke="hsl(228.5, 77.2%, 51.5%)" stroke-width="1.5"></path><path d="M1132.51 642.87L998.62 519.37" stroke="hsl(228.5, 77.2%, 51.5%)" stroke-width="1.5"></path><path d="M1298.96 254.94L1298.96 254.94" stroke="hsl(228.5, 77.2%, 51.5%)" stroke-width="1.5"></path><path d="M1298.96 254.94L1304.04 371.7" stroke="hsl(228.5, 77.2%, 51.5%)" stroke-width="1.5"></path><path d="M1298.96 254.94L1424.28 371.84" stroke="hsl(228.5, 77.2%, 51.5%)" stroke-width="1.5"></path><path d="M1304.04 371.7L1304.04 371.7" stroke="hsl(228.5, 77.2%, 51.5%)" stroke-width="1.5"></path><path d="M1304.04 371.7L1424.28 371.84" stroke="hsl(228.5, 77.2%, 51.5%)" stroke-width="1.5"></path><path d="M1276.29 675.51L1276.29 675.51" stroke="hsl(228.5, 77.2%, 51.5%)" stroke-width="1.5"></path><path d="M1276.29 675.51L1392.84 707.31" stroke="hsl(228.5, 77.2%, 51.5%)" stroke-width="1.5"></path><path d="M1276.29 675.51L1439.6 559.54" stroke="hsl(228.5, 77.2%, 51.5%)" stroke-width="1.5"></path><path d="M1276.29 675.51L1109.12 536.44" stroke="hsl(228.5, 77.2%, 51.5%)" stroke-width="1.5"></path><path d="M1389.15 -95.1L1389.15 -95.1" stroke="hsl(228.5, 77.2%, 51.5%)" stroke-width="1.5"></path><path d="M1389.15 -95.1L1404.26 86.7" stroke="hsl(228.5, 77.2%, 51.5%)" stroke-width="1.5"></path><path d="M1389.15 -95.1L1593.43 -60.35" stroke="hsl(228.5, 77.2%, 51.5%)" stroke-width="1.5"></path><path d="M1389.15 -95.1L1258.78 101.44" stroke="hsl(228.5, 77.2%, 51.5%)" stroke-width="1.5"></path><path d="M1389.15 -95.1L1577.9 78.08" stroke="hsl(228.5, 77.2%, 51.5%)" stroke-width="1.5"></path><path d="M1389.15 -95.1L1157.18 105.91" stroke="hsl(228.5, 77.2%, 51.5%)" stroke-width="1.5"></path><path d="M1404.26 86.7L1404.26 86.7" stroke="hsl(228.5, 77.2%, 51.5%)" stroke-width="1.5"></path><path d="M1404.26 86.7L1577.9 78.08" stroke="hsl(228.5, 77.2%, 51.5%)" stroke-width="1.5"></path><path d="M1424.28 371.84L1424.28 371.84" stroke="hsl(228.5, 77.2%, 51.5%)" stroke-width="1.5"></path><path d="M1392.84 707.31L1392.84 707.31" stroke="hsl(228.5, 77.2%, 51.5%)" stroke-width="1.5"></path><path d="M1392.84 707.31L1267.01 528.83" stroke="hsl(228.5, 77.2%, 51.5%)" stroke-width="1.5"></path><path d="M1593.43 -60.35L1593.43 -60.35" stroke="hsl(228.5, 77.2%, 51.5%)" stroke-width="1.5"></path><path d="M1593.43 -60.35L1577.9 78.08" stroke="hsl(228.5, 77.2%, 51.5%)" stroke-width="1.5"></path><path d="M1593.43 -60.35L1404.26 86.7" stroke="hsl(228.5, 77.2%, 51.5%)" stroke-width="1.5"></path><path d="M1593.43 -60.35L1594.49 196.74" stroke="hsl(228.5, 77.2%, 51.5%)" stroke-width="1.5"></path><path d="M1593.43 -60.35L1445.12 260.97" stroke="hsl(228.5, 77.2%, 51.5%)" stroke-width="1.5"></path><path d="M1577.9 78.08L1577.9 78.08" stroke="hsl(228.5, 77.2%, 51.5%)" stroke-width="1.5"></path><path d="M1577.9 78.08L1594.49 196.74" stroke="hsl(228.5, 77.2%, 51.5%)" stroke-width="1.5"></path><path d="M1594.49 196.74L1594.49 196.74" stroke="hsl(228.5, 77.2%, 51.5%)" stroke-width="1.5"></path><path d="M1594.49 196.74L1566.63 347.03" stroke="hsl(228.5, 77.2%, 51.5%)" stroke-width="1.5"></path><path d="M1594.49 196.74L1404.26 86.7" stroke="hsl(228.5, 77.2%, 51.5%)" stroke-width="1.5"></path><path d="M1566.63 347.03L1566.63 347.03" stroke="hsl(228.5, 77.2%, 51.5%)" stroke-width="1.5"></path><path d="M1566.63 347.03L1424.28 371.84" stroke="hsl(228.5, 77.2%, 51.5%)" stroke-width="1.5"></path><path d="M1566.63 347.03L1538.6 534.11" stroke="hsl(228.5, 77.2%, 51.5%)" stroke-width="1.5"></path><path d="M1566.63 347.03L1439.6 559.54" stroke="hsl(228.5, 77.2%, 51.5%)" stroke-width="1.5"></path><circle r="25" cx="-95.7" cy="515.88" fill="url(#SvgjsRadialGradient1005)"></circle><circle r="25" cx="40.95" cy="671.8" fill="url(#SvgjsRadialGradient1005)"></circle><circle r="25" cx="513.9" cy="510.31" fill="url(#SvgjsRadialGradient1005)"></circle><circle r="25" cx="828.04" cy="361.92" fill="url(#SvgjsRadialGradient1005)"></circle><circle r="25" cx="836.36" cy="488.43" fill="url(#SvgjsRadialGradient1005)"></circle><circle r="25" cx="1098.64" cy="357.44" fill="url(#SvgjsRadialGradient1005)"></circle><circle r="25" cx="1109.12" cy="536.44" fill="url(#SvgjsRadialGradient1005)"></circle><circle r="25" cx="1307.99" cy="-95.33" fill="url(#SvgjsRadialGradient1005)"></circle><circle r="25" cx="1258.78" cy="101.44" fill="url(#SvgjsRadialGradient1005)"></circle><circle r="25" cx="1267.01" cy="528.83" fill="url(#SvgjsRadialGradient1005)"></circle><circle r="25" cx="1445.12" cy="260.97" fill="url(#SvgjsRadialGradient1005)"></circle><circle r="25" cx="1439.6" cy="559.54" fill="url(#SvgjsRadialGradient1005)"></circle><circle r="25" cx="1538.6" cy="534.11" fill="url(#SvgjsRadialGradient1005)"></circle><circle r="25" cx="1607.46" cy="671.49" fill="url(#SvgjsRadialGradient1005)"></circle><circle r="5" cx="-88.65" cy="647.17" fill="#8b9ad9"></circle><circle r="5" cx="71.02" cy="520.97" fill="#8b9ad9"></circle><circle r="5" cx="251.99" cy="543.92" fill="#8b9ad9"></circle><circle r="5" cx="210.43" cy="637.87" fill="#8b9ad9"></circle><circle r="5" cx="394.94" cy="544.47" fill="#8b9ad9"></circle><circle r="5" cx="509.81" cy="689.04" fill="#8b9ad9"></circle><circle r="5" cx="679.56" cy="388.16" fill="#8b9ad9"></circle><circle r="5" cx="645.97" cy="491.89" fill="#8b9ad9"></circle><circle r="5" cx="710.36" cy="686.08" fill="#8b9ad9"></circle><circle r="5" cx="801.1" cy="670.02" fill="#8b9ad9"></circle><circle r="5" cx="955.4" cy="360.94" fill="#8b9ad9"></circle><circle r="5" cx="998.62" cy="519.37" fill="#8b9ad9"></circle><circle r="5" cx="1005.21" cy="684.59" fill="#8b9ad9"></circle><circle r="5" cx="1157.18" cy="105.91" fill="#8b9ad9"></circle><circle r="5" cx="1112.82" cy="203.04" fill="#8b9ad9"></circle><circle r="5" cx="1132.51" cy="642.87" fill="#8b9ad9"></circle><circle r="5" cx="1298.96" cy="254.94" fill="#8b9ad9"></circle><circle r="5" cx="1304.04" cy="371.7" fill="#8b9ad9"></circle><circle r="5" cx="1276.29" cy="675.51" fill="#8b9ad9"></circle><circle r="5" cx="1389.15" cy="-95.1" fill="#8b9ad9"></circle><circle r="5" cx="1404.26" cy="86.7" fill="#8b9ad9"></circle><circle r="5" cx="1424.28" cy="371.84" fill="#8b9ad9"></circle><circle r="5" cx="1392.84" cy="707.31" fill="#8b9ad9"></circle><circle r="5" cx="1593.43" cy="-60.35" fill="#8b9ad9"></circle><circle r="5" cx="1577.9" cy="78.08" fill="#8b9ad9"></circle><circle r="5" cx="1594.49" cy="196.74" fill="#8b9ad9"></circle><circle r="5" cx="1566.63" cy="347.03" fill="#8b9ad9"></circle></g><defs><mask id="SvgjsMask1003"><rect width="1440" height="560" fill="#ffffff"></rect></mask><linearGradient x1="50%" y1="0%" x2="50%" y2="100%" gradientUnits="userSpaceOnUse" id="SvgjsLinearGradient1004"><stop stop-color="#0e2a47" offset="0"></stop><stop stop-color="rgba(0, 0, 0, 1)" offset="1"></stop></linearGradient><radialGradient id="SvgjsRadialGradient1005"><stop stop-color="#ffffff" offset="0.1"></stop><stop stop-color="#1735b3" offset="0.2"></stop><stop stop-color="rgba(23, 53, 179, 0)" offset="1"></stop></radialGradient></defs></svg>